<?xml version="1.0" encoding="UTF-8" standalone="no"?>
<!-- Generator: Adobe Illustrator 16.0.0, SVG Export Plug-In . SVG Version: 6.00 Build 0)  -->

<svg
   xmlns:dc="http://purl.org/dc/elements/1.1/"
   xmlns:cc="http://creativecommons.org/ns#"
   xmlns:rdf="http://www.w3.org/1999/02/22-rdf-syntax-ns#"
   xmlns:svg="http://www.w3.org/2000/svg"
   xmlns="http://www.w3.org/2000/svg"
   xmlns:xlink="http://www.w3.org/1999/xlink"
   xmlns:sodipodi="http://sodipodi.sourceforge.net/DTD/sodipodi-0.dtd"
   xmlns:inkscape="http://www.inkscape.org/namespaces/inkscape"
   version="1.1"
   id="Layer_1"
   x="0px"
   y="0px"
   width="120"
   height="120"
   viewBox="0 0 120 120"
   enable-background="new 0 0 416 286"
   xml:space="preserve"
   inkscape:version="0.48.4 r9939"
   sodipodi:docname="0.svg"><metadata
     id="metadata309"><rdf:RDF><cc:Work
         rdf:about=""><dc:format>image/svg+xml</dc:format><dc:type
           rdf:resource="http://purl.org/dc/dcmitype/StillImage" /></cc:Work></rdf:RDF></metadata><defs
     id="defs307"><linearGradient
       id="linearGradient3888"><stop
         style="stop-color:#7fd05d;stop-opacity:1;"
         offset="0"
         id="stop3890" /><stop
         style="stop-color:#96fa78;stop-opacity:1;"
         offset="1"
         id="stop3892" /></linearGradient><linearGradient
       id="linearGradient3880"><stop
         style="stop-color:#97ff8e;stop-opacity:1;"
         offset="0"
         id="stop3882" /><stop
         style="stop-color:#b6ff4d;stop-opacity:1;"
         offset="1"
         id="stop3884" /></linearGradient><linearGradient
       id="linearGradient3897"><stop
         style="stop-color:#447821;stop-opacity:1;"
         offset="0"
         id="stop3899" /><stop
         style="stop-color:#86d055;stop-opacity:0;"
         offset="1"
         id="stop3901" /></linearGradient><linearGradient
       inkscape:collect="always"
       xlink:href="#linearGradient3888"
       id="linearGradient3906"
       x1="-0.5"
       y1="60"
       x2="81.833336"
       y2="60"
       gradientUnits="userSpaceOnUse" /><linearGradient
       inkscape:collect="always"
       xlink:href="#linearGradient3880-4"
       id="linearGradient3916-5"
       x1="-0.66666669"
       y1="43.666668"
       x2="122.33333"
       y2="43.666668"
       gradientUnits="userSpaceOnUse"
       gradientTransform="matrix(4.9333861,-1.7956058,1.7956058,4.9333861,18.279143,264.72073)" /><linearGradient
       id="linearGradient3880-4"><stop
         style="stop-color:#97ff8e;stop-opacity:1;"
         offset="0"
         id="stop3882-9" /><stop
         style="stop-color:#b6ff4d;stop-opacity:1;"
         offset="1"
         id="stop3884-7" /></linearGradient><linearGradient
       inkscape:collect="always"
       xlink:href="#linearGradient3880-2"
       id="linearGradient3916-0"
       x1="-0.66666669"
       y1="43.666668"
       x2="122.33333"
       y2="43.666668"
       gradientUnits="userSpaceOnUse"
       gradientTransform="matrix(4.9333861,-1.7956058,1.7956058,4.9333861,18.279143,264.72073)" /><linearGradient
       id="linearGradient3880-2"><stop
         style="stop-color:#97ff8e;stop-opacity:1;"
         offset="0"
         id="stop3882-1" /><stop
         style="stop-color:#b6ff4d;stop-opacity:1;"
         offset="1"
         id="stop3884-9" /></linearGradient><linearGradient
       inkscape:collect="always"
       xlink:href="#linearGradient3880-0"
       id="linearGradient3916-2"
       x1="-0.66666669"
       y1="43.666668"
       x2="122.33333"
       y2="43.666668"
       gradientUnits="userSpaceOnUse"
       gradientTransform="matrix(-2.034457,-4.8397815,4.8397815,-2.034457,10.273226,735.56214)" /><linearGradient
       id="linearGradient3880-0"><stop
         style="stop-color:#97ff8e;stop-opacity:1;"
         offset="0"
         id="stop3882-5" /><stop
         style="stop-color:#b6ff4d;stop-opacity:1;"
         offset="1"
         id="stop3884-0" /></linearGradient><linearGradient
       id="linearGradient3880-0-7"><stop
         style="stop-color:#97ff8e;stop-opacity:1;"
         offset="0"
         id="stop3882-5-1" /><stop
         style="stop-color:#b6ff4d;stop-opacity:1;"
         offset="1"
         id="stop3884-0-7" /></linearGradient><linearGradient
       inkscape:collect="always"
       xlink:href="#linearGradient3880-8"
       id="linearGradient3916-4"
       x1="-0.66666669"
       y1="43.666668"
       x2="122.33333"
       y2="43.666668"
       gradientUnits="userSpaceOnUse"
       gradientTransform="matrix(-2.034457,-4.8397815,4.8397815,-2.034457,-3.726774,749.56214)" /><linearGradient
       id="linearGradient3880-8"><stop
         style="stop-color:#97ff8e;stop-opacity:1;"
         offset="0"
         id="stop3882-4" /><stop
         style="stop-color:#b6ff4d;stop-opacity:1;"
         offset="1"
         id="stop3884-3" /></linearGradient></defs><sodipodi:namedview
     pagecolor="#ffffff"
     bordercolor="#666666"
     borderopacity="1"
     objecttolerance="10"
     gridtolerance="10"
     guidetolerance="10"
     inkscape:pageopacity="1"
     inkscape:pageshadow="2"
     inkscape:window-width="1920"
     inkscape:window-height="1017"
     id="namedview305"
     showgrid="false"
     inkscape:zoom="5"
     inkscape:cx="-14.2"
     inkscape:cy="47"
     inkscape:window-x="0"
     inkscape:window-y="27"
     inkscape:window-maximized="1"
     inkscape:current-layer="logo" /><g
     display="none"
     id="g65"
     style="display:none"
     transform="translate(0,-166)"><g
       display="inline"
       id="g67"
       style="display:inline"><polygon
         points="84.157,286 166.721,286 84.157,143 42.878,214.5 "
         id="polygon69"
         style="fill:#303f9f" /><polygon
         points="331.842,143 373.121,71.5 331.842,0 249.278,0 "
         id="polygon71"
         style="fill:#3f51b5" /><polygon
         points="331.842,286 414.4,143 373.121,71.5 249.278,286 "
         id="polygon73"
         style="fill:#7986cb" /><polygon
         points="42.878,214.5 166.721,0 84.157,0 1.596,143 "
         id="polygon75"
         style="fill:#536dfe" /><polygon
         points="249.278,0 290.561,71.5 331.842,0 "
         id="polygon77"
         style="fill-opacity:0.5" /><polygon
         points="84.157,286 125.438,214.5 166.721,286 "
         id="polygon79"
         style="fill-opacity:0.5" /><polygon
         points="84.157,0 125.438,71.5 166.721,0 "
         id="polygon81"
         style="fill:#ffffff;fill-opacity:0.2" /><polygon
         points="42.878,71.5 84.157,0 125.438,71.5 "
         id="polygon83"
         style="fill:#ffffff;fill-opacity:0.1" /><polygon
         points="42.878,71.5 84.157,143 125.438,71.5 "
         id="polygon85"
         style="fill:#ffffff;fill-opacity:0" /><polygon
         points="1.598,143 42.878,71.5 84.157,143 "
         id="polygon87"
         style="fill-opacity:0.1" /><polygon
         points="1.598,143 42.878,214.5 84.157,143 "
         id="polygon89"
         style="fill-opacity:0.2" /><polygon
         points="125.438,214.5 84.157,143 42.878,214.5 "
         id="polygon91"
         style="fill:#ffffff;fill-opacity:0" /><polygon
         points="373.121,71.5 331.842,143 290.561,71.5 "
         id="polygon93"
         style="fill:#ffffff;fill-opacity:0" /><g
         id="g95"><polygon
           points="331.842,143 373.121,71.5 414.4,143 "
           id="polygon97"
           style="fill:#ffffff;fill-opacity:0.2" /><polygon
           points="331.842,143 373.121,214.5 414.4,143 "
           id="polygon99"
           style="fill:#ffffff;fill-opacity:0.1" /><polygon
           points="290.561,214.5 331.842,143 373.121,214.5 "
           id="polygon101"
           style="fill:#ffffff;fill-opacity:0" /><polygon
           points="290.561,214.5 331.842,286 373.121,214.5 "
           id="polygon103"
           style="fill-opacity:0.1" /><polygon
           points="249.278,286 290.561,214.5 331.842,286 "
           id="polygon105"
           style="fill-opacity:0.2" /></g><polygon
         points="125.438,214.5 84.157,286 42.878,214.5 "
         id="polygon107"
         style="fill-opacity:0.2" /><polygon
         points="373.121,71.5 331.842,0 290.561,71.5 "
         id="polygon109"
         style="fill-opacity:0.2" /></g><rect
       y="-65"
       display="inline"
       width="416"
       height="416"
       id="rect111"
       x="0"
       style="fill:none;display:inline" /></g><g
     display="none"
     id="g113"
     style="display:none"
     transform="translate(0,-166)"><g
       display="inline"
       id="g115"
       style="display:inline"><polygon
         points="166.721,286 331.843,0 249.279,0 84.157,286 "
         id="polygon117"
         style="fill:#ff4081" /><polygon
         points="249.279,0 290.558,71.5 331.843,0 "
         id="polygon119"
         style="fill:#ffffff;fill-opacity:0.2" /><polygon
         points="208,71.5 249.279,0 290.558,71.5 "
         id="polygon121"
         style="fill:#ffffff;fill-opacity:0.1" /><polygon
         points="208,71.5 249.279,143 290.558,71.5 "
         id="polygon123"
         style="fill:#ffffff;fill-opacity:0" /><polygon
         points="166.721,143 208,214.5 249.279,143 "
         id="polygon125"
         style="fill-opacity:0.2" /><polygon
         points="125.439,214.5 166.721,143 208,214.5 "
         id="polygon127"
         style="fill-opacity:0.3" /><polygon
         points="125.439,214.5 166.721,286 208,214.5 "
         id="polygon129"
         style="fill-opacity:0.4" /><polygon
         points="84.157,286 125.439,214.5 166.721,286 "
         id="polygon131"
         style="fill-opacity:0.5" /><polygon
         points="166.721,143 208,71.5 249.279,143 "
         id="polygon133"
         style="fill-opacity:0.1" /></g><g
       display="inline"
       id="g135"
       style="display:inline"><polygon
         points="249.279,286 373.121,71.5 331.84,0 166.718,286 "
         id="polygon137"
         style="fill:#ff4081" /><polygon
         points="290.558,71.5 331.84,0 373.121,71.5 "
         id="polygon139"
         style="fill:#ffffff;fill-opacity:0.1" /><polygon
         points="290.558,71.5 331.84,143 373.121,71.5 "
         id="polygon141"
         style="fill:#ffffff;fill-opacity:0" /><polygon
         points="249.279,143 290.558,214.5 331.84,143 "
         id="polygon143"
         style="fill-opacity:0.2" /><polygon
         points="208,214.5 249.279,143 290.558,214.5 "
         id="polygon145"
         style="fill-opacity:0.3" /><polygon
         points="208,214.5 249.279,286 290.558,214.5 "
         id="polygon147"
         style="fill-opacity:0.4" /><polygon
         points="166.718,286 208,214.5 249.279,286 "
         id="polygon149"
         style="fill-opacity:0.5" /><polygon
         points="249.279,143 290.558,71.5 331.84,143 "
         id="polygon151"
         style="fill-opacity:0.1" /></g><g
       display="inline"
       id="g153"
       style="display:inline"><polygon
         points="84.16,286 249.279,0 166.718,0 42.878,214.5 "
         id="polygon155"
         style="fill:#ff4081" /><polygon
         points="166.718,0 208,71.5 249.279,0 "
         id="polygon157"
         style="fill:#ffffff;fill-opacity:0.2" /><polygon
         points="125.439,71.5 166.718,0 208,71.5 "
         id="polygon159"
         style="fill:#ffffff;fill-opacity:0.1" /><polygon
         points="125.439,71.5 166.718,143 208,71.5 "
         id="polygon161"
         style="fill:#ffffff;fill-opacity:0" /><polygon
         points="84.16,143 125.439,214.5 166.718,143 "
         id="polygon163"
         style="fill-opacity:0.2" /><polygon
         points="42.878,214.5 84.16,143 125.439,214.5 "
         id="polygon165"
         style="fill-opacity:0.3" /><polygon
         points="42.878,214.5 84.16,286 125.439,214.5 "
         id="polygon167"
         style="fill-opacity:0.4" /><polygon
         points="84.16,143 125.439,71.5 166.718,143 "
         id="polygon169"
         style="fill-opacity:0.1" /></g><rect
       y="-65"
       display="inline"
       width="416"
       height="416"
       id="rect171"
       x="0"
       style="fill:none;display:inline" /><g
       display="inline"
       id="g173"
       style="display:inline"><polygon
         points="84.157,286 166.721,286 84.157,143 42.878,214.5 "
         id="polygon175"
         style="fill:#303f9f" /><polygon
         points="331.843,143 373.121,71.5 331.843,0 249.279,0 "
         id="polygon177"
         style="fill:#3f51b5" /><polygon
         points="331.843,286 414.4,143 373.121,71.5 249.279,286 "
         id="polygon179"
         style="fill:#7986cb" /><polygon
         points="42.878,214.5 166.721,0 84.157,0 1.597,143 "
         id="polygon181"
         style="fill:#536dfe" /><polygon
         points="249.279,0 290.558,71.5 331.843,0 "
         id="polygon183"
         style="fill-opacity:0.5" /><polygon
         points="84.157,286 125.439,214.5 166.721,286 "
         id="polygon185"
         style="fill-opacity:0.5" /><polygon
         points="84.157,0 125.439,71.5 166.721,0 "
         id="polygon187"
         style="fill:#ffffff;fill-opacity:0.2" /><polygon
         points="42.878,71.5 84.157,0 125.439,71.5 "
         id="polygon189"
         style="fill:#ffffff;fill-opacity:0.1" /><polygon
         points="42.878,71.5 84.157,143 125.439,71.5 "
         id="polygon191"
         style="fill:#ffffff;fill-opacity:0" /><polygon
         points="1.6,143 42.878,71.5 84.157,143 "
         id="polygon193"
         style="fill-opacity:0.1" /><polygon
         points="1.6,143 42.878,214.5 84.157,143 "
         id="polygon195"
         style="fill-opacity:0.2" /><polygon
         points="125.439,214.5 84.157,143 42.878,214.5 "
         id="polygon197"
         style="fill:#ffffff;fill-opacity:0" /><polygon
         points="373.121,71.5 331.843,143 290.558,71.5 "
         id="polygon199"
         style="fill:#ffffff;fill-opacity:0" /><g
         id="g201"><polygon
           points="331.843,143 373.121,71.5 414.4,143 "
           id="polygon203"
           style="fill:#ffffff;fill-opacity:0.2" /><polygon
           points="331.843,143 373.121,214.5 414.4,143 "
           id="polygon205"
           style="fill:#ffffff;fill-opacity:0.1" /><polygon
           points="290.558,214.5 331.843,143 373.121,214.5 "
           id="polygon207"
           style="fill:#ffffff;fill-opacity:0" /><polygon
           points="290.558,214.5 331.843,286 373.121,214.5 "
           id="polygon209"
           style="fill-opacity:0.1" /><polygon
           points="249.279,286 290.558,214.5 331.843,286 "
           id="polygon211"
           style="fill-opacity:0.2" /></g><polygon
         points="125.439,214.5 84.157,286 42.878,214.5 "
         id="polygon213"
         style="fill-opacity:0.2" /><polygon
         points="373.121,71.5 331.843,0 290.558,71.5 "
         id="polygon215"
         style="fill-opacity:0.2" /></g></g><g
     display="none"
     id="g217"
     style="display:none"
     transform="translate(0,-166)"><g
       display="inline"
       id="g219"
       style="display:inline"><polygon
         points="166.721,286 331.843,0 249.279,0 84.157,286 "
         id="polygon221"
         style="fill:#9f499b" /><polygon
         points="249.279,0 290.558,71.5 331.843,0 "
         id="polygon223"
         style="fill:#ffffff;fill-opacity:0.2" /><polygon
         points="208,71.5 249.279,0 290.558,71.5 "
         id="polygon225"
         style="fill:#ffffff;fill-opacity:0.1" /><polygon
         points="208,71.5 249.279,143 290.558,71.5 "
         id="polygon227"
         style="fill:#ffffff;fill-opacity:0" /><polygon
         points="166.721,143 208,214.5 249.279,143 "
         id="polygon229"
         style="fill-opacity:0.2" /><polygon
         points="125.439,214.5 166.721,143 208,214.5 "
         id="polygon231"
         style="fill-opacity:0.3" /><polygon
         points="125.439,214.5 166.721,286 208,214.5 "
         id="polygon233"
         style="fill-opacity:0.4" /><polygon
         points="84.157,286 125.439,214.5 166.721,286 "
         id="polygon235"
         style="fill-opacity:0.5" /><polygon
         points="166.721,143 208,71.5 249.279,143 "
         id="polygon237"
         style="fill-opacity:0.1" /></g><g
       display="inline"
       id="g239"
       style="display:inline"><polygon
         points="249.279,286 373.121,71.5 331.84,0 166.718,286 "
         id="polygon241"
         style="fill:#9f499b" /><polygon
         points="290.558,71.5 331.84,0 373.121,71.5 "
         id="polygon243"
         style="fill:#ffffff;fill-opacity:0.1" /><polygon
         points="290.558,71.5 331.84,143 373.121,71.5 "
         id="polygon245"
         style="fill:#ffffff;fill-opacity:0" /><polygon
         points="249.279,143 290.558,214.5 331.84,143 "
         id="polygon247"
         style="fill-opacity:0.2" /><polygon
         points="208,214.5 249.279,143 290.558,214.5 "
         id="polygon249"
         style="fill-opacity:0.3" /><polygon
         points="208,214.5 249.279,286 290.558,214.5 "
         id="polygon251"
         style="fill-opacity:0.4" /><polygon
         points="166.718,286 208,214.5 249.279,286 "
         id="polygon253"
         style="fill-opacity:0.5" /><polygon
         points="249.279,143 290.558,71.5 331.84,143 "
         id="polygon255"
         style="fill-opacity:0.1" /></g><g
       display="inline"
       id="g257"
       style="display:inline"><polygon
         points="331.843,286 414.4,143 373.121,71.5 249.279,286 "
         id="polygon259"
         style="fill:#9f499b" /><polygon
         points="331.843,143 373.121,214.5 414.4,143 "
         id="polygon261"
         style="fill-opacity:0.2" /><polygon
         points="290.558,214.5 331.843,143 373.121,214.5 "
         id="polygon263"
         style="fill-opacity:0.3" /><polygon
         points="290.558,214.5 331.843,286 373.121,214.5 "
         id="polygon265"
         style="fill-opacity:0.4" /><polygon
         points="249.279,286 290.558,214.5 331.843,286 "
         id="polygon267"
         style="fill-opacity:0.5" /><polygon
         points="331.843,143 373.121,71.5 414.4,143 "
         id="polygon269"
         style="fill-opacity:0.1" /></g><g
       display="inline"
       id="g271"
       style="display:inline"><polygon
         points="84.16,286 249.279,0 166.718,0 42.878,214.5 "
         id="polygon273"
         style="fill:#9f499b" /><polygon
         points="166.718,0 208,71.5 249.279,0 "
         id="polygon275"
         style="fill:#ffffff;fill-opacity:0.2" /><polygon
         points="125.439,71.5 166.718,0 208,71.5 "
         id="polygon277"
         style="fill:#ffffff;fill-opacity:0.1" /><polygon
         points="125.439,71.5 166.718,143 208,71.5 "
         id="polygon279"
         style="fill:#ffffff;fill-opacity:0" /><polygon
         points="84.16,143 125.439,214.5 166.718,143 "
         id="polygon281"
         style="fill-opacity:0.2" /><polygon
         points="42.878,214.5 84.16,143 125.439,214.5 "
         id="polygon283"
         style="fill-opacity:0.3" /><polygon
         points="42.878,214.5 84.16,286 125.439,214.5 "
         id="polygon285"
         style="fill-opacity:0.4" /><polygon
         points="84.16,143 125.439,71.5 166.718,143 "
         id="polygon287"
         style="fill-opacity:0.1" /></g><g
       display="inline"
       id="g289"
       style="display:inline"><polygon
         points="42.878,214.5 166.721,0 84.157,0 1.6,143 "
         id="polygon291"
         style="fill:#9f499b" /><polygon
         points="84.157,0 125.439,71.5 166.721,0 "
         id="polygon293"
         style="fill:#ffffff;fill-opacity:0.2" /><polygon
         points="42.878,71.5 84.157,0 125.439,71.5 "
         id="polygon295"
         style="fill:#ffffff;fill-opacity:0.1" /><polygon
         points="42.878,71.5 84.157,143 125.439,71.5 "
         id="polygon297"
         style="fill:#ffffff;fill-opacity:0" /><polygon
         points="1.6,143 42.878,214.5 84.157,143 "
         id="polygon299"
         style="fill-opacity:0.2" /><polygon
         points="1.6,143 42.878,71.5 84.157,143 "
         id="polygon301"
         style="fill-opacity:0.1" /></g><rect
       y="-65"
       display="inline"
       width="416"
       height="416"
       id="rect303"
       x="0"
       style="fill:none;display:inline" /></g><g
     id="logo"
     transform="scale(0.19047619,0.19047619)"><path
       id="path3148"
       style="fill:none;stroke:#206500;stroke-width:5.25px;stroke-linecap:butt;stroke-linejoin:miter;stroke-opacity:1"
       d="m 517.65,171.15 c 0,0 7.35,-51.45 36.75,-56.7 m -59.85,-18.9 c 23.1,30.45 23.1,76.65 23.1,76.65 0,0 -9.45,-92.4 47.25,-128.1"
       inkscape:connector-curvature="0" /><path
       id="path3948"
       style="fill:none;stroke:#579a51;stroke-width:5.25000000000000000px;stroke-linecap:butt;stroke-linejoin:miter;stroke-opacity:1"
       d="m 362.25,551.25 c 0,0 3.15,-154.35 24.15,-100.8 m -51.45,29.4 c 32.55,10.5 27.3,74.55 27.3,74.55 0,0 -6.3,-87.15 60.9,-85.05"
       inkscape:connector-curvature="0"
       sodipodi:nodetypes="ccccc" /><path
       id="path3948-3"
       style="fill:none;stroke:#0ea601;stroke-width:5.25px;stroke-linecap:butt;stroke-linejoin:miter;stroke-opacity:1"
       d="m 107.625,452.025 2.1,-100.8 m -45.15,-7.35 c 32.55,10.5 43.05,111.3 43.05,111.3 0,0 -1.05,-50.4 22.05,-57.75"
       inkscape:connector-curvature="0"
       sodipodi:nodetypes="ccccc" /><path
       sodipodi:type="arc"
       style="opacity:0.98999999;fill:#ffce33;fill-opacity:1;stroke:none"
       id="path4043"
       sodipodi:cx="76.599998"
       sodipodi:cy="77.800003"
       sodipodi:rx="2.5999999"
       sodipodi:ry="2.5999999"
       d="m 79.199998,77.800003 a 2.5999999,2.5999999 0 1 1 -5.199999,0 2.5999999,2.5999999 0 1 1 5.199999,0 z"
       transform="matrix(5.25,0,0,5.25,-11.55,47.25)" /><path
       sodipodi:type="arc"
       style="opacity:0.98999999000000005;fill:#ffe533;fill-opacity:1;stroke:none"
       id="path4043-8"
       sodipodi:cx="76.599998"
       sodipodi:cy="77.800003"
       sodipodi:rx="2.5999999"
       sodipodi:ry="2.5999999"
       d="m 79.199998,77.800003 a 2.5999999,2.5999999 0 1 1 -5.199999,0 2.5999999,2.5999999 0 1 1 5.199999,0 z"
       transform="matrix(3.8365384,0,0,3.8365384,33.196166,180.84231)" /><path
       sodipodi:type="arc"
       style="opacity:0.98999999000000005;fill:#fff833;fill-opacity:1;stroke:none"
       id="path4043-4"
       sodipodi:cx="76.599998"
       sodipodi:cy="77.800003"
       sodipodi:rx="2.5999999"
       sodipodi:ry="2.5999999"
       d="m 79.199998,77.800003 a 2.5999999,2.5999999 0 1 1 -5.199999,0 2.5999999,2.5999999 0 1 1 5.199999,0 z"
       transform="matrix(6.8653847,0,0,6.8653847,-91.188455,-61.626943)" /></g></svg>