<svg xmlns="http://www.w3.org/2000/svg" xmlns:xlink="http://www.w3.org/1999/xlink" width="120" height="120" viewBox="0 0 120 120" enable-background="new 0 0 416 286"><defs><linearGradient id="a"><stop offset="0" stop-color="#7fd05d"/><stop offset="1" stop-color="#96fa78"/></linearGradient><linearGradient><stop offset="0" stop-color="#97ff8e"/><stop offset="1" stop-color="#b6ff4d"/></linearGradient><linearGradient><stop offset="0" stop-color="#447821"/><stop offset="1" stop-color="#86d055" stop-opacity="0"/></linearGradient><linearGradient xlink:href="#a" x1="-.5" y1="60" x2="81.833" y2="60" gradientUnits="userSpaceOnUse"/><linearGradient xlink:href="#b" x1="-.667" y1="43.667" x2="122.333" y2="43.667" gradientUnits="userSpaceOnUse" gradientTransform="matrix(4.933 -1.796 1.796 4.933 18.279 264.721)"/><linearGradient id="b"><stop offset="0" stop-color="#97ff8e"/><stop offset="1" stop-color="#b6ff4d"/></linearGradient><linearGradient xlink:href="#c" x1="-.667" y1="43.667" x2="122.333" y2="43.667" gradientUnits="userSpaceOnUse" gradientTransform="matrix(4.933 -1.796 1.796 4.933 18.279 264.721)"/><linearGradient id="c"><stop offset="0" stop-color="#97ff8e"/><stop offset="1" stop-color="#b6ff4d"/></linearGradient><linearGradient xlink:href="#d" x1="-.667" y1="43.667" x2="122.333" y2="43.667" gradientUnits="userSpaceOnUse" gradientTransform="matrix(-2.034 -4.84 4.84 -2.034 10.273 735.562)"/><linearGradient id="d"><stop offset="0" stop-color="#97ff8e"/><stop offset="1" stop-color="#b6ff4d"/></linearGradient><linearGradient><stop offset="0" stop-color="#97ff8e"/><stop offset="1" stop-color="#b6ff4d"/></linearGradient><linearGradient xlink:href="#e" x1="-.667" y1="43.667" x2="122.333" y2="43.667" gradientUnits="userSpaceOnUse" gradientTransform="matrix(-2.034 -4.84 4.84 -2.034 -3.727 749.562)"/><linearGradient id="e"><stop offset="0" stop-color="#97ff8e"/><stop offset="1" stop-color="#b6ff4d"/></linearGradient></defs><g><path d="M98.6 32.6s1.4-9.8 7-10.8m-11.4-3.6c4.4 5.8 4.4 14.6 4.4 14.6s-1.8-17.6 9-24.4" stroke="#206500" stroke-width="0.9975" fill="none"/><path d="M69 105s.6-29.4 4.6-19.2m-9.8 5.6c6.2 2 5.2 14.2 5.2 14.2s-1.2-16.6 11.6-16.2" stroke="#579a51" stroke-width="0.9975" fill="none"/><path d="M20.5 86.1l.4-19.2m-8.6-1.4c6.2 2 8.2 21.2 8.2 21.2s-.2-9.6 4.2-11" stroke="#0ea601" stroke-width="0.9975" fill="none"/><path d="M79.2 77.8a2.6 2.6 0 1 1-5.2 0 2.6 2.6 0 1 1 5.2 0z" transform="matrix(.998 0 0 .998 -2.195 8.978)" opacity=".99" fill="#ffce33"/><path d="M79.2 77.8a2.6 2.6 0 1 1-5.2 0 2.6 2.6 0 1 1 5.2 0z" transform="matrix(.729 0 0 .729 6.307 34.36)" opacity=".99" fill="#ffe533"/><path d="M79.2 77.8a2.6 2.6 0 1 1-5.2 0 2.6 2.6 0 1 1 5.2 0z" transform="matrix(1.304 0 0 1.304 -17.326 -11.709)" opacity=".99" fill="#fff833"/></g></svg>