<svg xmlns="http://www.w3.org/2000/svg" xmlns:xlink="http://www.w3.org/1999/xlink" width="120" height="120" viewBox="0 0 120 120" enable-background="new 0 0 416 286"><defs><linearGradient><stop offset="0" stop-color="#a16237"/><stop offset="1" stop-color="#562f16"/></linearGradient><linearGradient><stop offset="0" stop-color="#376f2a"/><stop offset="1" stop-color="#63ce49"/></linearGradient><linearGradient id="a"><stop offset="0" stop-color="#7fd05d"/><stop offset="1" stop-color="#96fa78"/></linearGradient><linearGradient><stop offset="0" stop-color="#97ff8e"/><stop offset="1" stop-color="#b6ff4d"/></linearGradient><linearGradient><stop offset="0" stop-color="#447821"/><stop offset="1" stop-color="#86d055" stop-opacity="0"/></linearGradient><linearGradient xlink:href="#a" x1="-.5" y1="60" x2="81.833" y2="60" gradientUnits="userSpaceOnUse"/><linearGradient xlink:href="#b" x1="-.667" y1="43.667" x2="122.333" y2="43.667" gradientUnits="userSpaceOnUse" gradientTransform="matrix(4.933 -1.796 1.796 4.933 18.279 264.721)"/><linearGradient id="b"><stop offset="0" stop-color="#97ff8e"/><stop offset="1" stop-color="#b6ff4d"/></linearGradient><linearGradient xlink:href="#c" x1="-.667" y1="43.667" x2="122.333" y2="43.667" gradientUnits="userSpaceOnUse" gradientTransform="matrix(4.933 -1.796 1.796 4.933 18.279 264.721)"/><linearGradient id="c"><stop offset="0" stop-color="#97ff8e"/><stop offset="1" stop-color="#b6ff4d"/></linearGradient><linearGradient xlink:href="#d" x1="-.667" y1="43.667" x2="122.333" y2="43.667" gradientUnits="userSpaceOnUse" gradientTransform="matrix(-2.034 -4.84 4.84 -2.034 10.273 735.562)"/><linearGradient id="d"><stop offset="0" stop-color="#97ff8e"/><stop offset="1" stop-color="#b6ff4d"/></linearGradient><linearGradient><stop offset="0" stop-color="#97ff8e"/><stop offset="1" stop-color="#b6ff4d"/></linearGradient><linearGradient xlink:href="#e" x1="-.667" y1="43.667" x2="122.333" y2="43.667" gradientUnits="userSpaceOnUse" gradientTransform="matrix(-2.034 -4.84 4.84 -2.034 -3.727 749.562)"/><linearGradient id="e"><stop offset="0" stop-color="#97ff8e"/><stop offset="1" stop-color="#b6ff4d"/></linearGradient><linearGradient xlink:href="#f" x1="289.275" y1="525.359" x2="340.725" y2="525.359" gradientUnits="userSpaceOnUse" gradientTransform="matrix(2.153 0 0 1 -363.214 0)"/><linearGradient id="f"><stop offset="0" stop-color="#62391e"/><stop offset="1" stop-color="#1b0b00"/></linearGradient><linearGradient xlink:href="#f" gradientUnits="userSpaceOnUse" gradientTransform="matrix(2.153 0 0 1.081 -363.214 -35.629)" x1="289.275" y1="525.359" x2="340.725" y2="525.359"/></defs><g><path d="M84.318 101.621c0 6.298-10.881 11.403-24.304 11.403-13.423 0-24.304-5.105-24.304-11.403s10.881-11.403 24.304-11.403c13.423 0 24.304 5.105 24.304 11.403z" opacity=".1"/><path d="M49.45 71.153h21.1s7.495 24.305 0 31.8c-4.973 4.973-16.127 4.973-21.1 0-7.495-7.495 0-31.8 0-31.8z" fill="#6f4826"/><path d="M49.438 71.156s-7.495 24.286 0 31.781c1.825 1.826 4.492 2.978 7.375 3.469v-35.25h-7.375z" fill="#5f3c1f"/><path d="M59.696 3.416s49.116 48.503 32.694 69.035c-12.215 15.271-50.944 17.349-65.389 0-14.445-17.349 32.694-69.035 32.694-69.035z" fill="#004d19"/><path d="M59.696 3.416s49.359 48.644 32.694 69.035c-9.44 11.551-35.344 16.503-49.789-.846s17.094-68.189 17.094-68.189z" fill="#005e1e"/></g></svg>