<svg xmlns="http://www.w3.org/2000/svg" xmlns:xlink="http://www.w3.org/1999/xlink" width="120" height="120" viewBox="0 0 120 120" enable-background="new 0 0 416 286"><defs><linearGradient><stop offset="0" stop-color="#a16237"/><stop offset="1" stop-color="#562f16"/></linearGradient><linearGradient><stop offset="0" stop-color="#376f2a"/><stop offset="1" stop-color="#63ce49"/></linearGradient><linearGradient id="a"><stop offset="0" stop-color="#7fd05d"/><stop offset="1" stop-color="#96fa78"/></linearGradient><linearGradient><stop offset="0" stop-color="#97ff8e"/><stop offset="1" stop-color="#b6ff4d"/></linearGradient><linearGradient><stop offset="0" stop-color="#447821"/><stop offset="1" stop-color="#86d055" stop-opacity="0"/></linearGradient><linearGradient xlink:href="#a" x1="-.5" y1="60" x2="81.833" y2="60" gradientUnits="userSpaceOnUse"/><linearGradient xlink:href="#b" x1="-.667" y1="43.667" x2="122.333" y2="43.667" gradientUnits="userSpaceOnUse" gradientTransform="matrix(4.933 -1.796 1.796 4.933 18.279 264.721)"/><linearGradient id="b"><stop offset="0" stop-color="#97ff8e"/><stop offset="1" stop-color="#b6ff4d"/></linearGradient><linearGradient xlink:href="#c" x1="-.667" y1="43.667" x2="122.333" y2="43.667" gradientUnits="userSpaceOnUse" gradientTransform="matrix(4.933 -1.796 1.796 4.933 18.279 264.721)"/><linearGradient id="c"><stop offset="0" stop-color="#97ff8e"/><stop offset="1" stop-color="#b6ff4d"/></linearGradient><linearGradient xlink:href="#d" x1="-.667" y1="43.667" x2="122.333" y2="43.667" gradientUnits="userSpaceOnUse" gradientTransform="matrix(-2.034 -4.84 4.84 -2.034 10.273 735.562)"/><linearGradient id="d"><stop offset="0" stop-color="#97ff8e"/><stop offset="1" stop-color="#b6ff4d"/></linearGradient><linearGradient><stop offset="0" stop-color="#97ff8e"/><stop offset="1" stop-color="#b6ff4d"/></linearGradient><linearGradient xlink:href="#e" x1="-.667" y1="43.667" x2="122.333" y2="43.667" gradientUnits="userSpaceOnUse" gradientTransform="matrix(-2.034 -4.84 4.84 -2.034 -3.727 749.562)"/><linearGradient id="e"><stop offset="0" stop-color="#97ff8e"/><stop offset="1" stop-color="#b6ff4d"/></linearGradient><linearGradient xlink:href="#f" x1="289.275" y1="525.359" x2="340.725" y2="525.359" gradientUnits="userSpaceOnUse" gradientTransform="matrix(2.153 0 0 1 -363.214 0)"/><linearGradient id="f"><stop offset="0" stop-color="#62391e"/><stop offset="1" stop-color="#1b0b00"/></linearGradient><linearGradient xlink:href="#f" gradientUnits="userSpaceOnUse" gradientTransform="matrix(2.153 0 0 1.081 -363.214 -35.629)" x1="289.275" y1="525.359" x2="340.725" y2="525.359"/></defs><g><path d="M38 33.969c-18.17 0-32.906 7.048-32.906 15.719 0 6.415 8.071 11.939 19.625 14.375 2.54 4.985 10.731 8.625 20.469 8.625 11.764 0 21.313-5.303 21.313-11.875 0-.966-.236-1.913-.625-2.813 3.172-2.414 5.031-5.253 5.031-8.313 0-8.671-14.736-15.719-32.906-15.719z" opacity=".1"/><path d="M38.182 7.416s36.764 31.556 24.472 44.913c-9.143 9.935-38.133 11.287-48.945 0-10.812-11.287 24.472-44.913 24.472-44.913z" fill="#12592a"/><path d="M38.182 7.416s36.946 31.647 24.472 44.913c-7.066 7.515-26.456 10.737-37.268-.55-10.812-11.287 12.795-44.363 12.795-44.363z" fill="#005e1e"/><path d="M45.133 32.518s24.001 20.601 15.976 29.321c-5.969 6.486-24.894 7.369-31.953 0-7.059-7.369 15.976-29.321 15.976-29.321z" fill="#0b5825"/><path d="M45.133 32.518s24.12 20.66 15.976 29.321c-4.613 4.906-17.271 7.009-24.33-.359-7.059-7.369 8.353-28.962 8.353-28.962z" fill="#197938"/></g></svg>