<svg xmlns="http://www.w3.org/2000/svg" xmlns:xlink="http://www.w3.org/1999/xlink" width="120" height="120" viewBox="0 0 120 120" enable-background="new 0 0 416 286"><defs><linearGradient id="a"><stop offset="0" stop-color="#7fd05d"/><stop offset="1" stop-color="#96fa78"/></linearGradient><linearGradient><stop offset="0" stop-color="#97ff8e"/><stop offset="1" stop-color="#b6ff4d"/></linearGradient><linearGradient><stop offset="0" stop-color="#447821"/><stop offset="1" stop-color="#86d055" stop-opacity="0"/></linearGradient><linearGradient xlink:href="#a" x1="-.5" y1="60" x2="81.833" y2="60" gradientUnits="userSpaceOnUse"/><linearGradient xlink:href="#b" x1="-.667" y1="43.667" x2="122.333" y2="43.667" gradientUnits="userSpaceOnUse" gradientTransform="matrix(4.933 -1.796 1.796 4.933 18.279 264.721)"/><linearGradient id="b"><stop offset="0" stop-color="#97ff8e"/><stop offset="1" stop-color="#b6ff4d"/></linearGradient><linearGradient xlink:href="#c" x1="-.667" y1="43.667" x2="122.333" y2="43.667" gradientUnits="userSpaceOnUse" gradientTransform="matrix(4.933 -1.796 1.796 4.933 18.279 264.721)"/><linearGradient id="c"><stop offset="0" stop-color="#97ff8e"/><stop offset="1" stop-color="#b6ff4d"/></linearGradient><linearGradient xlink:href="#d" x1="-.667" y1="43.667" x2="122.333" y2="43.667" gradientUnits="userSpaceOnUse" gradientTransform="matrix(-2.034 -4.84 4.84 -2.034 10.273 735.562)"/><linearGradient id="d"><stop offset="0" stop-color="#97ff8e"/><stop offset="1" stop-color="#b6ff4d"/></linearGradient><linearGradient><stop offset="0" stop-color="#97ff8e"/><stop offset="1" stop-color="#b6ff4d"/></linearGradient><linearGradient xlink:href="#e" x1="-.667" y1="43.667" x2="122.333" y2="43.667" gradientUnits="userSpaceOnUse" gradientTransform="matrix(-2.034 -4.84 4.84 -2.034 -3.727 749.562)"/><linearGradient id="e"><stop offset="0" stop-color="#97ff8e"/><stop offset="1" stop-color="#b6ff4d"/></linearGradient></defs><g><g><path d="M85.577 5.806c-1.641 0-2.97 1.289-2.97 2.872v.065c-.149-.023-.305-.04-.46-.04-1.567 0-2.836 1.223-2.836 2.734s1.269 2.734 2.836 2.734c.294 0 .578-.041.845-.121-.058.212-.092.432-.092.661 0 1.426 1.199 2.581 2.677 2.581 1.479 0 2.677-1.156 2.677-2.581 0-.244-.035-.478-.1-.702.3.104.617.161.954.161 1.567 0 2.845-1.223 2.845-2.734s-1.277-2.734-2.845-2.734c-.196 0-.384.02-.569.056l.008-.081c0-1.582-1.329-2.872-2.97-2.872z" opacity=".1" fill="#aaa"/><path d="M85.581 5.725c-1.516 0-2.744 1.235-2.744 2.752v.062c-.137-.022-.281-.039-.425-.039-1.448 0-2.62 1.172-2.62 2.62 0 1.448 1.172 2.62 2.62 2.62.271 0 .534-.039.781-.116-.054.203-.085.414-.085.634 0 1.366 1.107 2.473 2.473 2.473 1.366 0 2.473-1.107 2.473-2.473 0-.234-.032-.458-.093-.672.277.1.57.155.881.155 1.448 0 2.628-1.172 2.628-2.62 0-1.448-1.18-2.62-2.628-2.62-.181 0-.355.019-.526.054l.008-.077c0-1.516-1.228-2.752-2.744-2.752z" fill="#fff"/><path d="M88 11.219c0 1.167-1.047 2.113-2.337 2.113-1.291 0-2.338-.946-2.338-2.113s1.047-2.113 2.338-2.113c1.291 0 2.337.946 2.337 2.113z" fill="#dcdcdc"/></g><g><path d="M96.577 17.328c-1.641 0-2.97 1.289-2.97 2.872v.065c-.149-.023-.305-.04-.46-.04-1.567 0-2.836 1.223-2.836 2.734s1.269 2.734 2.836 2.734c.294 0 .578-.041.845-.121-.058.212-.092.432-.092.661 0 1.426 1.199 2.581 2.677 2.581 1.479 0 2.677-1.156 2.677-2.581 0-.244-.035-.478-.1-.702.3.104.617.161.954.161 1.567 0 2.845-1.223 2.845-2.734s-1.277-2.734-2.845-2.734c-.196 0-.384.02-.569.056l.008-.081c0-1.582-1.329-2.872-2.97-2.872z" opacity=".1" fill="#aaa"/><path d="M96.581 17.247c-1.516 0-2.744 1.235-2.744 2.752v.062c-.137-.022-.281-.039-.425-.039-1.448 0-2.62 1.172-2.62 2.62 0 1.448 1.172 2.62 2.62 2.62.271 0 .534-.039.781-.116-.054.203-.085.414-.085.634 0 1.366 1.107 2.473 2.473 2.473 1.366 0 2.473-1.107 2.473-2.473 0-.234-.032-.458-.093-.672.277.1.57.155.881.155 1.448 0 2.628-1.172 2.628-2.62 0-1.448-1.18-2.62-2.628-2.62-.181 0-.355.019-.526.054l.008-.077c0-1.516-1.228-2.752-2.744-2.752z" fill="#fff"/><path d="M99 22.741c0 1.167-1.047 2.113-2.337 2.113-1.291 0-2.338-.946-2.338-2.113s1.047-2.113 2.338-2.113c1.291 0 2.337.946 2.337 2.113z" fill="#dcdcdc"/></g><g><path d="M107.577 5.806c-1.641 0-2.97 1.289-2.97 2.872v.065c-.149-.023-.305-.04-.46-.04-1.567 0-2.836 1.223-2.836 2.734s1.269 2.734 2.836 2.734c.294 0 .578-.041.845-.121-.058.212-.092.432-.092.661 0 1.426 1.199 2.581 2.677 2.581 1.479 0 2.677-1.156 2.677-2.581 0-.244-.035-.478-.1-.702.3.104.617.161.954.161 1.567 0 2.845-1.223 2.845-2.734s-1.277-2.734-2.845-2.734c-.196 0-.384.02-.569.056l.008-.081c0-1.582-1.329-2.872-2.97-2.872z" opacity=".1" fill="#aaa"/><path d="M107.581 5.725c-1.516 0-2.744 1.235-2.744 2.752v.062c-.137-.022-.281-.039-.425-.039-1.448 0-2.62 1.172-2.62 2.62 0 1.448 1.172 2.62 2.62 2.62.271 0 .534-.039.781-.116-.054.203-.085.414-.085.634 0 1.366 1.107 2.473 2.473 2.473 1.366 0 2.473-1.107 2.473-2.473 0-.234-.032-.458-.093-.672.277.1.57.155.881.155 1.448 0 2.628-1.172 2.628-2.62 0-1.448-1.18-2.62-2.628-2.62-.181 0-.355.019-.526.054l.008-.077c0-1.516-1.228-2.752-2.744-2.752z" fill="#fff"/><path d="M110 11.219c0 1.167-1.047 2.113-2.337 2.113-1.291 0-2.338-.946-2.338-2.113s1.047-2.113 2.338-2.113c1.291 0 2.337.946 2.337 2.113z" fill="#dcdcdc"/></g></g></svg>