<svg xmlns="http://www.w3.org/2000/svg" xmlns:xlink="http://www.w3.org/1999/xlink" width="120" height="120" viewBox="0 0 120 120" enable-background="new 0 0 416 286"><defs><linearGradient id="f"><stop offset="0" stop-color="#9af6f6"/><stop offset="1" stop-color="#dbfffb"/></linearGradient><linearGradient id="a"><stop offset="0" stop-color="#7fd05d"/><stop offset="1" stop-color="#96fa78"/></linearGradient><linearGradient><stop offset="0" stop-color="#97ff8e"/><stop offset="1" stop-color="#b6ff4d"/></linearGradient><linearGradient><stop offset="0" stop-color="#447821"/><stop offset="1" stop-color="#86d055" stop-opacity="0"/></linearGradient><linearGradient xlink:href="#a" x1="-.5" y1="60" x2="81.833" y2="60" gradientUnits="userSpaceOnUse"/><linearGradient xlink:href="#b" x1="-.667" y1="43.667" x2="122.333" y2="43.667" gradientUnits="userSpaceOnUse" gradientTransform="matrix(4.933 -1.796 1.796 4.933 18.279 264.721)"/><linearGradient id="b"><stop offset="0" stop-color="#97ff8e"/><stop offset="1" stop-color="#b6ff4d"/></linearGradient><linearGradient xlink:href="#c" x1="-.667" y1="43.667" x2="122.333" y2="43.667" gradientUnits="userSpaceOnUse" gradientTransform="matrix(4.933 -1.796 1.796 4.933 18.279 264.721)"/><linearGradient id="c"><stop offset="0" stop-color="#97ff8e"/><stop offset="1" stop-color="#b6ff4d"/></linearGradient><linearGradient xlink:href="#d" x1="-.667" y1="43.667" x2="122.333" y2="43.667" gradientUnits="userSpaceOnUse" gradientTransform="matrix(-2.034 -4.84 4.84 -2.034 10.273 735.562)"/><linearGradient id="d"><stop offset="0" stop-color="#97ff8e"/><stop offset="1" stop-color="#b6ff4d"/></linearGradient><linearGradient><stop offset="0" stop-color="#97ff8e"/><stop offset="1" stop-color="#b6ff4d"/></linearGradient><linearGradient xlink:href="#e" x1="-.667" y1="43.667" x2="122.333" y2="43.667" gradientUnits="userSpaceOnUse" gradientTransform="matrix(-2.034 -4.84 4.84 -2.034 -3.727 749.562)"/><linearGradient id="e"><stop offset="0" stop-color="#97ff8e"/><stop offset="1" stop-color="#b6ff4d"/></linearGradient><linearGradient xlink:href="#f" id="g" x1="10.8" y1="95.8" x2="135.6" y2="-.2" gradientUnits="userSpaceOnUse"/></defs><path d="M67.188 26.594c-5.491 0-10.392 1.664-13.719 4.313-4.033-1.522-8.638-2.375-13.563-2.375-15.63 0-28.313 8.712-28.313 19.469 0 6.1 4.09 11.522 10.469 15.094-.179 1.142-.25 2.325-.25 3.5 0 17.827 21.12 32.25 47.188 32.25s47.188-14.423 47.188-32.25c0-14.016-13.06-25.946-31.313-30.406-1.925-5.497-9.11-9.594-17.688-9.594zm40.625.406c-4.087 0-7.406 2.281-7.406 5.094s3.319 5.094 7.406 5.094 7.375-2.281 7.375-5.094-3.288-5.094-7.375-5.094zm-15.906.281c-3.258 0-5.906 1.82-5.906 4.063 0 2.243 2.648 4.063 5.906 4.063 3.258 0 5.906-1.82 5.906-4.063 0-2.243-2.648-4.063-5.906-4.063zm21.906 13.5c-2.32 0-4.219 1.279-4.219 2.875s1.899 2.906 4.219 2.906c2.32 0 4.188-1.31 4.188-2.906s-1.868-2.875-4.188-2.875zm-97.219 43.625c-5.854 0-10.594 3.283-10.594 7.313 0 4.029 4.74 7.281 10.594 7.281 5.854 0 10.594-3.252 10.594-7.281s-4.74-7.313-10.594-7.313z" fill="url(#g)"/></svg>