<svg xmlns="http://www.w3.org/2000/svg" xmlns:xlink="http://www.w3.org/1999/xlink" width="120" height="120" viewBox="0 0 120 120" enable-background="new 0 0 416 286"><defs><linearGradient><stop offset="0" stop-color="#bc8058"/><stop offset="1" stop-color="#f1af83"/></linearGradient><linearGradient><stop offset="0" stop-color="#a16237"/><stop offset="1" stop-color="#562f16"/></linearGradient><linearGradient><stop offset="0" stop-color="#376f2a"/><stop offset="1" stop-color="#63ce49"/></linearGradient><linearGradient id="a"><stop offset="0" stop-color="#7fd05d"/><stop offset="1" stop-color="#96fa78"/></linearGradient><linearGradient><stop offset="0" stop-color="#97ff8e"/><stop offset="1" stop-color="#b6ff4d"/></linearGradient><linearGradient><stop offset="0" stop-color="#447821"/><stop offset="1" stop-color="#86d055" stop-opacity="0"/></linearGradient><linearGradient xlink:href="#a" x1="-.5" y1="60" x2="81.833" y2="60" gradientUnits="userSpaceOnUse"/><linearGradient xlink:href="#b" x1="-.667" y1="43.667" x2="122.333" y2="43.667" gradientUnits="userSpaceOnUse" gradientTransform="matrix(4.933 -1.796 1.796 4.933 18.279 264.721)"/><linearGradient id="b"><stop offset="0" stop-color="#97ff8e"/><stop offset="1" stop-color="#b6ff4d"/></linearGradient><linearGradient xlink:href="#c" x1="-.667" y1="43.667" x2="122.333" y2="43.667" gradientUnits="userSpaceOnUse" gradientTransform="matrix(4.933 -1.796 1.796 4.933 18.279 264.721)"/><linearGradient id="c"><stop offset="0" stop-color="#97ff8e"/><stop offset="1" stop-color="#b6ff4d"/></linearGradient><linearGradient xlink:href="#d" x1="-.667" y1="43.667" x2="122.333" y2="43.667" gradientUnits="userSpaceOnUse" gradientTransform="matrix(-2.034 -4.84 4.84 -2.034 10.273 735.562)"/><linearGradient id="d"><stop offset="0" stop-color="#97ff8e"/><stop offset="1" stop-color="#b6ff4d"/></linearGradient><linearGradient><stop offset="0" stop-color="#97ff8e"/><stop offset="1" stop-color="#b6ff4d"/></linearGradient><linearGradient xlink:href="#e" x1="-.667" y1="43.667" x2="122.333" y2="43.667" gradientUnits="userSpaceOnUse" gradientTransform="matrix(-2.034 -4.84 4.84 -2.034 -3.727 749.562)"/><linearGradient id="e"><stop offset="0" stop-color="#97ff8e"/><stop offset="1" stop-color="#b6ff4d"/></linearGradient><linearGradient xlink:href="#f" x1="289.275" y1="525.359" x2="340.725" y2="525.359" gradientUnits="userSpaceOnUse" gradientTransform="matrix(2.153 0 0 1 -363.214 0)"/><linearGradient id="f"><stop offset="0" stop-color="#62391e"/><stop offset="1" stop-color="#1b0b00"/></linearGradient><linearGradient xlink:href="#f" gradientUnits="userSpaceOnUse" gradientTransform="matrix(2.153 0 0 1.081 -363.214 -35.629)" x1="289.275" y1="525.359" x2="340.725" y2="525.359"/></defs><g><path d="M72.8 108.8a15.5 9 0 1 1-31 0 15.5 9 0 1 1 31 0z" transform="matrix(1.369 0 0 1.106 -18.608 -39.956)" opacity=".1"/><path d="M82.312 52.111c0 12.539-9.989 22.703-22.312 22.703-12.322 0-22.312-10.165-22.312-22.703 0-6.269 2.497-11.945 6.535-16.054 2.019-2.054 4.423-13.717 7.092-14.866 2.669-1.149 5.604 8.216 8.685 8.216 3.081 0 6.015-9.365 8.685-8.216 2.669 1.149 5.073 12.811 7.092 14.866 4.038 4.108 6.535 9.784 6.535 16.054z" fill="#535d58"/><path d="M18.8 44.6a2.8 2.8 0 1 1-5.6 0 2.8 2.8 0 1 1 5.6 0z" transform="matrix(1.425 0 0 1.425 28.073 -18.269)" opacity=".99" fill="#2d2d2d"/><path d="M18.8 44.6a2.8 2.8 0 1 1-5.6 0 2.8 2.8 0 1 1 5.6 0z" transform="matrix(1.425 0 0 1.425 46.028 -18.269)" opacity=".99" fill="#2d2d2d"/><path d="M39.625 61.375c3.484 7.919 11.297 13.438 20.375 13.438s16.891-5.519 20.375-13.438c-5.917 3.803-12.889 6.031-20.375 6.031-7.486 0-14.458-2.228-20.375-6.031z" fill="#4c524f"/></g></svg>