<svg xmlns="http://www.w3.org/2000/svg" xmlns:xlink="http://www.w3.org/1999/xlink" width="120" height="120" viewBox="0 0 120 120" enable-background="new 0 0 416 286"><defs><linearGradient><stop offset="0" stop-color="#a16237"/><stop offset="1" stop-color="#562f16"/></linearGradient><linearGradient><stop offset="0" stop-color="#376f2a"/><stop offset="1" stop-color="#63ce49"/></linearGradient><linearGradient id="a"><stop offset="0" stop-color="#7fd05d"/><stop offset="1" stop-color="#96fa78"/></linearGradient><linearGradient><stop offset="0" stop-color="#97ff8e"/><stop offset="1" stop-color="#b6ff4d"/></linearGradient><linearGradient><stop offset="0" stop-color="#447821"/><stop offset="1" stop-color="#86d055" stop-opacity="0"/></linearGradient><linearGradient xlink:href="#a" x1="-.5" y1="60" x2="81.833" y2="60" gradientUnits="userSpaceOnUse"/><linearGradient xlink:href="#b" x1="-.667" y1="43.667" x2="122.333" y2="43.667" gradientUnits="userSpaceOnUse" gradientTransform="matrix(4.933 -1.796 1.796 4.933 18.279 264.721)"/><linearGradient id="b"><stop offset="0" stop-color="#97ff8e"/><stop offset="1" stop-color="#b6ff4d"/></linearGradient><linearGradient xlink:href="#c" x1="-.667" y1="43.667" x2="122.333" y2="43.667" gradientUnits="userSpaceOnUse" gradientTransform="matrix(4.933 -1.796 1.796 4.933 18.279 264.721)"/><linearGradient id="c"><stop offset="0" stop-color="#97ff8e"/><stop offset="1" stop-color="#b6ff4d"/></linearGradient><linearGradient xlink:href="#d" x1="-.667" y1="43.667" x2="122.333" y2="43.667" gradientUnits="userSpaceOnUse" gradientTransform="matrix(-2.034 -4.84 4.84 -2.034 10.273 735.562)"/><linearGradient id="d"><stop offset="0" stop-color="#97ff8e"/><stop offset="1" stop-color="#b6ff4d"/></linearGradient><linearGradient><stop offset="0" stop-color="#97ff8e"/><stop offset="1" stop-color="#b6ff4d"/></linearGradient><linearGradient xlink:href="#e" x1="-.667" y1="43.667" x2="122.333" y2="43.667" gradientUnits="userSpaceOnUse" gradientTransform="matrix(-2.034 -4.84 4.84 -2.034 -3.727 749.562)"/><linearGradient id="e"><stop offset="0" stop-color="#97ff8e"/><stop offset="1" stop-color="#b6ff4d"/></linearGradient><linearGradient xlink:href="#f" x1="289.275" y1="525.359" x2="340.725" y2="525.359" gradientUnits="userSpaceOnUse" gradientTransform="matrix(2.153 0 0 1 -363.214 0)"/><linearGradient id="f"><stop offset="0" stop-color="#62391e"/><stop offset="1" stop-color="#1b0b00"/></linearGradient><linearGradient xlink:href="#f" gradientUnits="userSpaceOnUse" gradientTransform="matrix(2.153 0 0 1.081 -363.214 -35.629)" x1="289.275" y1="525.359" x2="340.725" y2="525.359"/></defs><g><path d="M72.8 108.8a15.5 9 0 1 1-31 0 15.5 9 0 1 1 31 0z" transform="matrix(2.099 0 0 1.696 -60.412 -83.068)" opacity=".1"/><path d="M71.8 37.6a34.2 34.8 0 1 1-68.4 0 34.2 34.8 0 1 1 68.4 0z" transform="matrix(.998 0 0 .998 22.344 20.349)" opacity=".99" fill="#cc0050"/></g></svg>